<?xml version="1.0" encoding="UTF-8"?>
<svg width="24px" height="24px" viewBox="0 0 24 24" version="1.1" xmlns="http://www.w3.org/2000/svg" xmlns:xlink="http://www.w3.org/1999/xlink">
    <title>icn_calorie_burn_line</title>
    <defs>
        <path d="M14.4179307,1 C9.40193067,2.2 8.23693067,6.609 8.23693067,8.594 C8.23693067,10.559 9.03593067,11.989 9.43593067,12.785 C6.86193067,12.008 6.27793067,10.552 5.82493067,9.206 C3.71493067,11.764 3.81793067,14.412 4.25893067,16.191 C4.74993067,18.163 5.94493067,19.847 7.49893067,21.123 C8.71993067,22.128 10.8699307,23 12.8219307,23 C14.7729307,23 16.9199307,21.999 18.1749307,20.861 C21.7089307,17.66 21.4619307,11.803 17.3919307,9.075 C15.6259307,7.893 13.3229307,6.751 13.3389307,3.88 C13.3509307,1.926 14.4179307,1 14.4179307,1 M12.4229307,2.891 C12.3719307,3.191 12.3409307,3.52 12.3389307,3.874 C12.3209307,6.985 14.6009307,8.458 16.2659307,9.533 C16.4589307,9.659 16.6499307,9.782 16.8349307,9.906 C18.4669307,11 19.4849307,12.767 19.6299307,14.753 C19.7799307,16.805 19.0049307,18.761 17.5029307,20.12 C16.5049307,21.025 14.6129307,22 12.8219307,22 C11.0619307,22 9.12993067,21.17 8.13293067,20.351 C6.64593067,19.128 5.64093067,17.605 5.22993067,15.95 C4.81293067,14.269 4.95693067,12.705 5.65693067,11.282 C6.27693067,12.284 7.27393067,13.177 9.14593067,13.742 C9.24193067,13.771 9.33893067,13.785 9.43593067,13.785 C9.72593067,13.785 10.0069307,13.659 10.1999307,13.43 C10.4579307,13.124 10.5079307,12.694 10.3299307,12.337 L10.2409307,12.163 C9.84093067,11.376 9.23693067,10.187 9.23693067,8.594 C9.23693067,7.125 9.95793067,4.437 12.4229307,2.891" id="path-1"></path>
    </defs>
    <g id="Symbols" stroke="none" stroke-width="1" fill="none" fill-rule="evenodd">
        <g id="icn_calorie_burn_line">
            <rect id="Rectangle-248" x="0" y="0" width="24" height="24"></rect>
            <mask id="mask-2" fill="white">
                <use xlink:href="#path-1"></use>
            </mask>
            <use id="Fill-1" fill="#2E3134" xlink:href="#path-1"></use>
            <g id="Group" mask="url(#mask-2)" fill="#2E3134">
                <g id="Rectangle-4">
                    <rect x="0" y="0" width="24" height="24"></rect>
                </g>
            </g>
        </g>
    </g>
</svg>